<?xml version="1.0" standalone="no"?>
<!DOCTYPE svg PUBLIC "-//W3C//DTD SVG 20010904//EN"
 "http://www.w3.org/TR/2001/REC-SVG-20010904/DTD/svg10.dtd">
<svg version="1.0" xmlns="http://www.w3.org/2000/svg"
 width="500.000000pt" height="500.000000pt" viewBox="0 0 500.000000 500.000000"
 preserveAspectRatio="xMidYMid meet">

<g transform="translate(0.000000,500.000000) scale(0.100000,-0.100000)"
fill="#000000" stroke="none">
<path d="M2505 4846 c47 -17 104 -21 89 -6 -5 5 -36 12 -69 14 l-60 6 40 -14z"/>
<path d="M2658 4833 c12 -2 32 -2 45 0 12 2 2 4 -23 4 -25 0 -35 -2 -22 -4z"/>
<path d="M1866 4815 c-21 -7 -43 -18 -49 -24 -6 -6 -32 -11 -57 -11 -59 0
-148 -23 -208 -54 l-47 -25 40 -2 c22 -1 48 -1 58 -1 34 3 6 -17 -53 -39 -32
-12 -61 -27 -64 -35 -7 -18 3 -18 23 0 21 18 120 50 129 41 12 -11 -38 -41
-92 -55 -61 -15 -245 -88 -266 -105 -8 -7 -39 -24 -67 -39 -128 -63 -151 -76
-163 -91 -7 -8 -18 -15 -24 -15 -7 0 -23 -14 -35 -31 -24 -33 -91 -68 -129
-69 -14 0 -26 -8 -31 -23 -12 -31 -267 -288 -277 -279 -4 4 -4 1 0 -6 10 -17
-47 -114 -90 -151 -31 -28 -52 -36 -77 -32 -4 1 -10 -6 -14 -15 -3 -10 -21
-42 -40 -72 -18 -31 -33 -64 -33 -74 0 -9 -8 -33 -17 -53 -13 -27 -14 -38 -5
-47 8 -8 28 7 79 62 37 40 73 82 80 94 6 12 23 28 38 36 23 12 28 12 35 0 7
-12 10 -11 15 5 20 59 30 75 71 109 30 25 44 45 44 61 0 14 5 25 12 25 7 0 24
12 40 27 44 42 45 18 2 -29 -167 -182 -338 -476 -438 -750 -19 -52 -33 -59
-59 -30 -19 21 -23 92 -7 122 16 30 2 50 -35 50 -43 0 -65 -22 -65 -66 0 -21
-12 -55 -27 -82 -27 -45 -28 -54 -32 -199 -3 -142 -2 -153 15 -159 11 -4 34
-18 52 -31 24 -18 31 -30 27 -44 -5 -14 0 -21 20 -29 23 -9 26 -14 20 -40 -4
-16 -7 -96 -8 -176 0 -85 -4 -138 -8 -125 -12 30 -32 26 -48 -10 -12 -27 -12
-33 0 -40 8 -5 17 -9 22 -9 14 0 7 -20 -8 -20 -18 0 -19 -9 -4 -47 11 -29 18
-123 9 -123 -22 2 -38 35 -48 105 -21 145 -25 212 -13 219 7 4 11 -1 11 -13 0
-11 5 -23 11 -27 13 -7 5 36 -17 101 -8 22 -14 63 -14 92 0 42 -3 51 -15 47
-22 -9 -25 -30 -26 -165 -2 -240 32 -520 78 -644 8 -22 30 -85 48 -140 53
-158 139 -355 155 -355 6 0 10 -11 10 -25 0 -43 39 -107 108 -177 36 -37 75
-87 86 -110 12 -24 31 -47 43 -53 13 -5 23 -20 25 -35 2 -16 10 -26 23 -28 11
-2 28 -11 38 -20 12 -10 17 -11 17 -3 0 29 25 1 34 -40 10 -37 15 -44 34 -41
13 1 42 -11 65 -27 23 -15 61 -34 84 -42 38 -13 153 -109 153 -128 0 -22 209
-141 248 -141 11 0 27 -9 37 -20 9 -10 40 -27 67 -36 28 -9 59 -27 71 -40 11
-13 36 -27 56 -30 20 -3 77 -17 128 -30 50 -13 109 -24 131 -24 26 0 42 -5 46
-15 4 -11 21 -15 63 -15 32 0 101 -5 153 -11 52 -5 112 -12 132 -14 21 -2 41
-6 46 -9 26 -16 598 -1 608 16 3 4 32 8 65 8 43 0 59 -4 59 -14 0 -9 -21 -15
-72 -20 -40 -4 -104 -14 -143 -22 -49 -11 -133 -15 -283 -15 -138 1 -221 -3
-235 -10 -16 -9 -23 -8 -32 5 -9 12 -37 17 -116 21 -113 6 -241 31 -389 76
-53 17 -116 29 -145 28 l-50 0 75 -30 c98 -38 211 -69 255 -69 19 0 52 -7 72
-14 63 -25 205 -46 366 -56 157 -9 360 -4 389 11 9 5 37 10 62 11 25 0 46 5
46 9 0 4 33 10 73 13 145 11 173 14 200 25 16 6 56 11 90 11 46 0 74 6 107 24
25 13 61 27 80 31 19 4 72 27 117 51 46 24 92 44 104 44 15 0 19 5 15 15 -6
16 21 35 52 35 11 0 26 7 33 16 8 9 28 26 46 38 17 11 76 53 130 92 54 39 108
74 120 78 12 4 33 20 46 36 14 16 51 45 83 66 33 20 69 47 82 60 12 13 35 26
50 29 15 4 34 10 42 14 8 4 40 9 70 10 30 1 59 6 64 11 5 5 15 44 22 87 11 61
19 82 38 98 29 23 67 106 86 182 6 29 21 65 33 79 15 20 18 31 10 43 -8 12 -3
22 19 44 23 24 28 37 28 78 0 32 12 80 34 137 18 48 43 123 55 167 13 44 27
88 32 98 14 26 69 343 69 398 0 48 -14 142 -30 199 -5 19 -12 98 -14 175 -4
117 -10 158 -35 250 -20 71 -27 113 -21 119 16 16 12 58 -8 91 -12 18 -22 61
-26 109 -12 130 -84 326 -120 326 -16 0 -26 21 -26 59 0 14 -15 54 -32 88 -18
34 -50 94 -72 135 -21 40 -48 86 -60 103 -22 30 -38 63 -51 100 -6 19 -7 19
-16 2 -6 -9 -7 -27 -4 -38 6 -17 3 -20 -12 -17 -11 2 -19 13 -21 31 -2 17 -16
37 -40 55 -20 15 -86 77 -146 138 -61 60 -132 125 -158 143 -25 18 -60 50 -77
71 -17 22 -42 40 -59 43 -16 3 -50 27 -77 52 -26 26 -59 51 -74 56 -25 9 -25
8 -6 -6 11 -9 45 -36 75 -60 30 -25 66 -53 80 -64 69 -54 -52 -18 -194 57 -61
33 -114 53 -161 61 -39 7 -82 22 -98 32 -28 20 -288 109 -319 109 -9 0 -20 5
-23 10 -3 6 -23 10 -44 10 -20 0 -42 5 -47 10 -7 7 -19 7 -35 1 -16 -6 -32 -5
-44 2 -21 11 -39 14 -167 23 -91 6 -124 22 -99 47 9 9 16 9 32 -1 12 -8 23
-11 26 -8 3 3 -5 10 -18 16 -27 12 -79 -1 -79 -20 0 -16 -67 -12 -102 6 -17 9
-60 19 -97 23 -73 8 -69 11 59 35 74 13 71 14 -165 14 -180 1 -250 -2 -279
-13z m869 -684 c212 -58 395 -188 447 -321 l22 -55 -3 -860 c-2 -473 -6 -1009
-10 -1190 l-6 -330 -50 -89 c-66 -117 -164 -218 -248 -256 -112 -51 -150 -53
-607 -40 -228 7 -418 15 -421 19 -6 6 -1 207 21 816 5 171 15 461 20 645 5
184 14 501 20 703 6 202 8 372 5 377 -3 6 -42 10 -85 10 -43 0 -81 3 -83 8 -8
13 9 567 17 581 7 11 85 12 445 8 408 -4 441 -6 516 -26z m1539 -237 c3 -8 2
-12 -4 -9 -6 3 -10 10 -10 16 0 14 7 11 14 -7z"/>
<path d="M2379 3543 c-4 -8 2 -595 16 -1581 7 -430 11 -534 22 -544 18 -14
248 -5 285 12 15 7 29 19 33 28 3 8 10 89 15 181 11 172 -7 1880 -19 1892 -9
10 -348 22 -352 12z"/>
<path d="M3010 4745 c7 -8 17 -12 22 -9 6 4 5 10 -3 15 -22 14 -33 10 -19 -6z"/>
<path d="M2635 4740 c3 -5 8 -10 11 -10 2 0 4 5 4 10 0 6 -5 10 -11 10 -5 0
-7 -4 -4 -10z"/>
<path d="M3172 4684 c10 -10 23 -14 34 -10 16 6 16 8 4 16 -8 6 -24 10 -35 10
-18 0 -18 -1 -3 -16z"/>
<path d="M1285 4620 c-3 -6 1 -7 9 -4 18 7 21 14 7 14 -6 0 -13 -4 -16 -10z"/>
<path d="M1244 4594 c-18 -14 -18 -15 4 -4 12 6 22 13 22 15 0 8 -5 6 -26 -11z"/>
<path d="M3460 4584 c0 -2 19 -13 43 -24 41 -20 41 -20 17 -1 -23 19 -60 34
-60 25z"/>
<path d="M973 4428 c-10 -13 -30 -29 -45 -37 -15 -8 -29 -20 -32 -27 -11 -28
59 15 82 50 25 40 23 48 -5 14z"/>
<path d="M826 4305 c-8 -8 -21 -15 -29 -15 -20 0 -49 -35 -45 -55 2 -12 16 -3
53 35 27 27 46 50 43 50 -4 0 -13 -7 -22 -15z"/>
<path d="M784 4229 c-19 -22 -19 -22 3 -10 24 12 39 31 25 31 -5 0 -17 -10
-28 -21z"/>
<path d="M692 4172 c-90 -73 -212 -206 -212 -230 0 -4 -20 -34 -45 -67 -25
-33 -45 -69 -45 -79 0 -28 16 -10 44 47 14 29 54 76 111 128 92 83 190 200
184 218 -2 5 -19 -2 -37 -17z"/>
<path d="M480 3880 c-9 -6 -10 -10 -3 -10 6 0 15 5 18 10 8 12 4 12 -15 0z"/>
<path d="M389 3564 c-13 -37 -7 -39 13 -3 9 16 13 29 7 29 -5 0 -14 -12 -20
-26z"/>
<path d="M4867 2523 c-4 -3 -6 -22 -6 -42 l1 -36 8 40 c8 42 8 49 -3 38z"/>
<path d="M4903 2417 c-24 -31 -40 -85 -36 -120 4 -24 0 -46 -11 -62 -9 -13
-16 -40 -16 -58 0 -39 -23 -67 -36 -45 -4 7 -7 26 -6 43 2 23 0 27 -10 17 -6
-6 -12 -28 -11 -47 1 -19 -4 -35 -9 -35 -6 0 -8 -10 -4 -22 10 -39 -14 -209
-35 -250 -24 -46 -59 -155 -59 -183 0 -11 -9 -33 -20 -50 -11 -16 -20 -41 -20
-54 0 -13 -10 -39 -21 -58 -24 -38 -19 -55 8 -31 10 9 27 18 38 20 17 2 20 -3
20 -29 0 -39 14 -55 22 -25 3 12 11 22 19 22 19 0 61 76 85 155 12 39 31 90
44 115 26 51 55 161 55 207 0 18 6 33 15 37 17 6 21 46 5 46 -14 0 -12 21 4
39 12 15 29 92 43 198 4 38 2 44 -21 54 -28 13 -33 25 -14 31 9 3 9 12 -1 36
-7 17 -10 35 -7 41 9 15 -10 23 -21 8z"/>
<path d="M610 836 c0 -2 8 -10 18 -17 15 -13 16 -12 3 4 -13 16 -21 21 -21 13z"/>
</g>
</svg>
