<?xml version="1.0" encoding="UTF-8" standalone="no" ?>
<!DOCTYPE svg PUBLIC "-//W3C//DTD SVG 1.1//EN" "http://www.w3.org/Graphics/SVG/1.1/DTD/svg11.dtd">
<svg xmlns="http://www.w3.org/2000/svg" xmlns:xlink="http://www.w3.org/1999/xlink" version="1.1" width="1080" height="1080" viewBox="0 0 1080 1080" xml:space="preserve">
<desc>Created with Fabric.js 5.2.4</desc>
<defs>
</defs>
<rect x="0" y="0" width="100%" height="100%" fill="transparent"></rect>
<g transform="matrix(1 0 0 1 540 540)" id="5fb1c8ad-7a73-4256-b2e4-8fdf4463d67b"  >
<rect style="stroke: none; stroke-width: 1; stroke-dasharray: none; stroke-linecap: butt; stroke-dashoffset: 0; stroke-linejoin: miter; stroke-miterlimit: 4; fill: rgb(229,229,229); fill-rule: nonzero; opacity: 1;" vector-effect="non-scaling-stroke"  x="-540" y="-540" rx="0" ry="0" width="1080" height="1080" />
</g>
<g transform="matrix(1 0 0 1 540 540)" id="1229ccb1-9747-427b-afba-f811888c86ad"  >
</g>
<g transform="matrix(0.17 0 0 -0.18 549.84 14.48)"  >
<path style="stroke: none; stroke-width: 1; stroke-dasharray: none; stroke-linecap: butt; stroke-dashoffset: 0; stroke-linejoin: miter; stroke-miterlimit: 4; fill: rgb(241,19,19); fill-rule: nonzero; opacity: 1;" vector-effect="non-scaling-stroke"  transform=" translate(-4045.86, -5815.19)" d="M 4038 5813 C 4045 5810 4054 5811 4057 5814 C 4061 5817 4055 5820 4044 5819 C 4033 5819 4030 5816 4038 5813 z" stroke-linecap="round" />
</g>
<g transform="matrix(0.17 0 0 -0.18 502.47 530.23)"  >
<path style="stroke: rgb(0,0,0); stroke-width: 0; stroke-dasharray: none; stroke-linecap: butt; stroke-dashoffset: 0; stroke-linejoin: miter; stroke-miterlimit: 4; fill: rgb(241,19,19); fill-rule: nonzero; opacity: 1;" vector-effect="non-scaling-stroke"  transform=" translate(-3853.18, -2953.03)" d="M 3260 5769 C 3241 5765 3194 5754 3155 5745 C 3117 5736 3054 5721 3015 5713 C 2922 5693 2832 5655 2855 5646 C 2864 5643 2890 5640 2913 5639 C 2949 5639 2952 5637 2937 5627 C 2887 5594 2884 5590 2920 5600 C 2993 5620 2981 5573 2907 5546 C 2884 5538 2809 5510 2740 5485 C 2587 5429 2291 5270 2190 5189 C 2149 5157 2096 5124 2071 5115 C 2035 5103 1997 5069 1861 4929 C 1749 4813 1683 4736 1657 4691 C 1610 4611 1537 4533 1498 4525 C 1483 4521 1462 4506 1451 4492 C 1400 4418 1328 4238 1344 4223 C 1349 4218 1402 4268 1464 4333 C 1542 4415 1582 4450 1597 4450 C 1612 4450 1625 4460 1635 4480 C 1643 4496 1670 4532 1695 4560 C 1720 4588 1746 4623 1755 4639 C 1769 4668 1846 4740 1862 4740 C 1879 4740 1868 4718 1812 4648 C 1617 4403 1444 4109 1346 3860 C 1298 3738 1281 3714 1252 3729 C 1224 3744 1216 3771 1216 3860 C 1215 3932 1214 3935 1190 3938 C 1148 3943 1129 3918 1094 3814 C 1059 3713 1041 3588 1040 3446 L 1040 3377 L 1100 3319 C 1133 3288 1160 3255 1160 3247 C 1160 3240 1169 3225 1180 3215 C 1197 3199 1200 3184 1200 3101 C 1200 3048 1197 2961 1193 2908 C 1187 2812 1187 2810 1164 2816 C 1123 2826 1108 2751 1147 2736 C 1161 2730 1161 2728 1146 2711 C 1131 2695 1130 2686 1139 2653 C 1155 2597 1153 2510 1137 2510 C 1107 2510 1075 2627 1064 2774 C 1056 2867 1065 2924 1082 2899 C 1089 2889 1090 2891 1086 2910 C 1074 2960 1061 3026 1055 3073 C 1052 3099 1045 3120 1040 3120 C 1022 3120 1017 3041 1023 2821 C 1032 2492 1055 2351 1146 2067 C 1197 1910 1285 1688 1331 1604 C 1353 1565 1370 1527 1370 1518 C 1370 1496 1438 1395 1506 1315 C 1539 1277 1581 1225 1598 1200 C 1693 1066 1720 1041 1768 1040 C 1785 1040 1795 1029 1810 995 C 1826 957 1837 946 1877 929 C 1999 877 2099 812 2215 710 C 2281 651 2327 622 2490 539 C 2597 485 2706 428 2732 414 C 2772 392 2956 342 3105 312 C 3133 307 3169 298 3185 292 C 3233 275 3586 247 3810 242 C 3923 240 4110 244 4225 250 C 4504 267 4492 267 4497 253 C 4509 219 4320 191 4010 180 C 3870 175 3726 168 3690 165 C 3649 162 3605 166 3570 175 C 3540 183 3497 190 3475 190 C 3405 190 3243 219 3051 264 C 2757 333 2722 334 2915 267 C 2970 248 3047 227 3085 220 C 3182 203 3226 193 3289 176 C 3381 149 3616 129 3850 128 C 4061 127 4086 128 4250 158 C 4346 175 4492 196 4574 205 C 4677 216 4753 231 4819 252 C 4955 295 5181 398 5203 426 C 5213 438 5237 454 5258 461 C 5278 467 5338 505 5390 544 C 5442 583 5527 642 5578 675 C 5628 708 5720 774 5780 823 C 5918 932 6012 981 6097 988 C 6137 991 6165 999 6174 1009 C 6182 1018 6198 1062 6210 1107 C 6225 1163 6243 1204 6266 1232 C 6284 1255 6313 1313 6330 1360 C 6347 1407 6372 1472 6386 1505 C 6399 1538 6410 1575 6410 1586 C 6410 1598 6419 1619 6430 1633 C 6442 1647 6459 1699 6470 1751 C 6481 1802 6512 1911 6539 1994 C 6664 2377 6712 2685 6672 2860 C 6665 2890 6650 3011 6639 3129 C 6628 3248 6611 3387 6600 3439 C 6589 3491 6580 3559 6580 3590 C 6580 3622 6574 3663 6566 3681 C 6558 3700 6540 3777 6526 3853 C 6488 4050 6442 4168 6389 4208 C 6379 4215 6364 4246 6355 4277 C 6333 4352 6265 4496 6197 4612 C 6167 4663 6132 4725 6119 4750 L 6096 4795 L 6090 4765 C 6084 4731 6055 4719 6046 4748 C 6039 4769 5721 5085 5583 5207 C 5533 5252 5477 5296 5458 5305 L 5425 5322 L 5458 5288 C 5512 5231 5485 5231 5355 5288 C 5317 5304 5243 5336 5192 5358 C 5141 5381 5058 5411 5008 5425 C 4958 5439 4896 5462 4871 5474 C 4762 5529 4504 5604 4370 5620 C 4173 5643 4035 5663 4012 5671 C 3999 5676 3986 5689 3983 5700 C 3977 5724 3967 5725 3950 5705 C 3943 5696 3921 5690 3896 5690 C 3857 5690 3664 5733 3652 5744 C 3649 5747 3662 5756 3681 5764 C 3712 5778 3698 5779 3505 5778 C 3390 5778 3279 5774 3260 5769 z M 4299 4955 C 4439 4908 4554 4851 4641 4785 C 4728 4720 4769 4670 4820 4570 L 4858 4495 L 4845 3074 L 4833 1652 L 4774 1554 C 4689 1413 4554 1276 4445 1224 L 4365 1185 L 3885 1187 C 3621 1188 3365 1193 3315 1197 L 3225 1205 L 3227 1380 C 3230 1562 3240 1933 3265 2770 C 3273 3042 3285 3411 3290 3590 C 3295 3769 3300 3992 3300 4086 L 3300 4257 L 3254 4264 C 3228 4267 3190 4270 3169 4270 C 3098 4270 3100 4266 3100 4434 C 3100 4661 3119 4973 3133 4982 C 3140 4986 3381 4990 3671 4990 L 4196 4990 L 4299 4955 z M 6138 4671 C 6141 4663 6137 4659 6129 4662 C 6122 4664 6114 4672 6112 4679 C 6109 4687 6113 4691 6121 4688 C 6128 4686 6136 4678 6138 4671 z" stroke-linecap="round" />
</g>
<g transform="matrix(0.17 0 0 -0.18 553.34 532.73)"  >
<path style="stroke: none; stroke-width: 1; stroke-dasharray: none; stroke-linecap: butt; stroke-dashoffset: 0; stroke-linejoin: miter; stroke-miterlimit: 4; fill: rgb(241,19,19); fill-rule: nonzero; opacity: 1;" vector-effect="non-scaling-stroke"  transform=" translate(-4070.51, -2981)" d="M 3864 3474 C 3871 2668 3885 1950 3896 1798 L 3903 1710 L 4052 1710 C 4233 1710 4265 1719 4277 1777 C 4287 1826 4286 3816 4276 4052 C 4269 4204 4266 4230 4251 4234 C 4242 4236 4150 4242 4046 4245 L 3857 4252 L 3864 3474 z" stroke-linecap="round" />
</g>
<g transform="matrix(0.17 0 0 -0.18 688.57 49.14)"  >
<path style="stroke: none; stroke-width: 1; stroke-dasharray: none; stroke-linecap: butt; stroke-dashoffset: 0; stroke-linejoin: miter; stroke-miterlimit: 4; fill: rgb(241,19,19); fill-rule: nonzero; opacity: 1;" vector-effect="non-scaling-stroke"  transform=" translate(-4825, -5627.7)" d="M 4810 5630 C 4810 5624 4817 5620 4825 5620 C 4833 5620 4840 5622 4840 5624 C 4840 5626 4833 5630 4825 5634 C 4817 5637 4810 5635 4810 5630 z" stroke-linecap="round" />
</g>
<g transform="matrix(0.17 0 0 -0.18 331.59 60.52)"  >
<path style="stroke: none; stroke-width: 1; stroke-dasharray: none; stroke-linecap: butt; stroke-dashoffset: 0; stroke-linejoin: miter; stroke-miterlimit: 4; fill: rgb(241,19,19); fill-rule: nonzero; opacity: 1;" vector-effect="non-scaling-stroke"  transform=" translate(-2820.48, -5566.03)" d="M 2814 5564 C 2796 5550 2796 5549 2818 5560 C 2830 5566 2840 5573 2840 5575 C 2840 5583 2835 5581 2814 5564 z" stroke-linecap="round" />
</g>
<g transform="matrix(0.17 0 0 -0.18 210.13 113.12)"  >
<path style="stroke: none; stroke-width: 1; stroke-dasharray: none; stroke-linecap: butt; stroke-dashoffset: 0; stroke-linejoin: miter; stroke-miterlimit: 4; fill: rgb(241,19,19); fill-rule: nonzero; opacity: 1;" vector-effect="non-scaling-stroke"  transform=" translate(-2138.85, -5280.96)" d="M 2138 5286 C 2117 5268 2100 5250 2100 5246 C 2100 5234 2159 5280 2170 5301 C 2184 5326 2182 5325 2138 5286 z" stroke-linecap="round" />
</g>
<g transform="matrix(0.17 0 0 -0.18 176.03 142.18)"  >
<path style="stroke: none; stroke-width: 1; stroke-dasharray: none; stroke-linecap: butt; stroke-dashoffset: 0; stroke-linejoin: miter; stroke-miterlimit: 4; fill: rgb(241,19,19); fill-rule: nonzero; opacity: 1;" vector-effect="non-scaling-stroke"  transform=" translate(-1947.09, -5124.1)" d="M 1940 5132 C 1927 5122 1919 5108 1921 5101 C 1924 5094 1936 5101 1955 5120 C 1986 5153 1976 5161 1940 5132 z" stroke-linecap="round" />
</g>
<g transform="matrix(0.17 0 0 -0.18 125.26 204.53)"  >
<path style="stroke: none; stroke-width: 1; stroke-dasharray: none; stroke-linecap: butt; stroke-dashoffset: 0; stroke-linejoin: miter; stroke-miterlimit: 4; fill: rgb(241,19,19); fill-rule: nonzero; opacity: 1;" vector-effect="non-scaling-stroke"  transform=" translate(-1666.14, -4781.91)" d="M 1741 4914 C 1684 4859 1615 4780 1578 4727 C 1498 4610 1467 4560 1473 4554 C 1475 4551 1490 4570 1504 4595 C 1519 4620 1579 4691 1637 4753 C 1747 4869 1860 4997 1860 5005 C 1860 5022 1828 4998 1741 4914 z" stroke-linecap="round" />
</g>
<g transform="matrix(0.17 0 0 -0.18 1030.02 660.54)"  >
<path style="stroke: none; stroke-width: 1; stroke-dasharray: none; stroke-linecap: butt; stroke-dashoffset: 0; stroke-linejoin: miter; stroke-miterlimit: 4; fill: rgb(241,19,19); fill-rule: nonzero; opacity: 1;" vector-effect="non-scaling-stroke"  transform=" translate(-6747.36, -2306.86)" d="M 6872 2875 C 6866 2862 6854 2808 6845 2755 C 6819 2593 6778 2505 6764 2579 C 6754 2628 6743 2615 6735 2548 C 6714 2355 6698 2264 6675 2198 C 6660 2158 6634 2077 6616 2019 C 6597 1960 6570 1880 6555 1841 C 6529 1771 6528 1744 6552 1768 C 6569 1785 6607 1783 6614 1764 C 6617 1755 6620 1739 6620 1727 C 6620 1708 6622 1708 6651 1736 C 6668 1752 6697 1797 6715 1835 C 6762 1933 6837 2146 6861 2248 C 6873 2296 6888 2347 6896 2362 C 6906 2382 6908 2396 6901 2408 C 6894 2421 6897 2445 6910 2488 C 6921 2522 6936 2589 6944 2637 L 6960 2724 L 6930 2755 C 6911 2775 6904 2790 6909 2800 C 6918 2817 6903 2900 6891 2900 C 6887 2900 6878 2889 6872 2875 z" stroke-linecap="round" />
</g>
</svg>